<?xml version="1.0" encoding="UTF-8" standalone="no"?>
<svg width="900" height="600" viewBox="0 0 900 600" xmlns="http://www.w3.org/2000/svg">
  <!-- Background -->
  <rect width="900" height="600" fill="#1E1E1E"/>
  
  <!-- Title -->
  <text x="20" y="40" font-family="Arial" font-size="24" fill="white">Adaptive EQ</text>
  
  <!-- Spectrum Analyzer -->
  <rect x="20" y="60" width="860" height="80" fill="#2A2A2A" rx="5" ry="5"/>
  <path d="M20,140 Q200,100 400,120 T650,90 T860,130" stroke="#00A0C8" stroke-width="2" fill="none"/>
  <path d="M20,140 L20,140 L860,140" stroke="#F87F00" stroke-width="2" fill="none" stroke-dasharray="5,5"/>
  
  <!-- Frequency Scale -->
  <text x="20" y="155" font-family="Arial" font-size="10" fill="#AAAAAA">20Hz</text>
  <text x="150" y="155" font-family="Arial" font-size="10" fill="#AAAAAA">100Hz</text>
  <text x="320" y="155" font-family="Arial" font-size="10" fill="#AAAAAA">1kHz</text>
  <text x="560" y="155" font-family="Arial" font-size="10" fill="#AAAAAA">10kHz</text>
  <text x="835" y="155" font-family="Arial" font-size="10" fill="#AAAAAA">20kHz</text>
  
  <!-- Section Headers -->
  <text x="20" y="200" font-family="Arial" font-size="18" fill="white">Low Band</text>
  <text x="300" y="200" font-family="Arial" font-size="18" fill="white">Mid Band</text>
  <text x="580" y="200" font-family="Arial" font-size="18" fill="white">High Band</text>
  <text x="20" y="420" font-family="Arial" font-size="18" fill="white">Global Controls</text>
  <text x="580" y="420" font-family="Arial" font-size="18" fill="white">Presets</text>
  
  <!-- Low Band Controls -->
  <rect x="20" y="210" width="250" height="30" fill="#333333" rx="5" ry="5"/>
  <text x="45" y="230" font-family="Arial" font-size="14" fill="white">Low Band Enabled</text>
  <rect x="25" y="215" width="15" height="15" fill="#00A0C8" rx="2" ry="2"/>
  
  <!-- Low Band Knobs -->
  <!-- Threshold -->
  <circle cx="50" cy="270" r="30" fill="#3A3A3A" stroke="#555555" stroke-width="1"/>
  <circle cx="50" cy="270" r="25" fill="#444444" stroke="#666666" stroke-width="1"/>
  <line x1="50" y1="270" x2="50" y2="250" stroke="white" stroke-width="2"/>
  <text x="50" y="310" font-family="Arial" font-size="12" fill="white" text-anchor="middle">Threshold</text>
  <text x="50" y="325" font-family="Arial" font-size="10" fill="#AAAAAA" text-anchor="middle">-24 dB</text>
  
  <!-- Ratio -->
  <circle cx="120" cy="270" r="30" fill="#3A3A3A" stroke="#555555" stroke-width="1"/>
  <circle cx="120" cy="270" r="25" fill="#444444" stroke="#666666" stroke-width="1"/>
  <line x1="120" y1="270" x2="120" y2="250" stroke="white" stroke-width="2"/>
  <text x="120" y="310" font-family="Arial" font-size="12" fill="white" text-anchor="middle">Ratio</text>
  <text x="120" y="325" font-family="Arial" font-size="10" fill="#AAAAAA" text-anchor="middle">4.0:1</text>
  
  <!-- Attack -->
  <circle cx="190" cy="270" r="30" fill="#3A3A3A" stroke="#555555" stroke-width="1"/>
  <circle cx="190" cy="270" r="25" fill="#444444" stroke="#666666" stroke-width="1"/>
  <line x1="190" y1="270" x2="190" y2="250" stroke="white" stroke-width="2"/>
  <text x="190" y="310" font-family="Arial" font-size="12" fill="white" text-anchor="middle">Attack</text>
  <text x="190" y="325" font-family="Arial" font-size="10" fill="#AAAAAA" text-anchor="middle">50 ms</text>
  
  <!-- Release -->
  <circle cx="50" cy="340" r="30" fill="#3A3A3A" stroke="#555555" stroke-width="1"/>
  <circle cx="50" cy="340" r="25" fill="#444444" stroke="#666666" stroke-width="1"/>
  <line x1="50" y1="340" x2="50" y2="320" stroke="white" stroke-width="2"/>
  <text x="50" y="380" font-family="Arial" font-size="12" fill="white" text-anchor="middle">Release</text>
  <text x="50" y="395" font-family="Arial" font-size="10" fill="#AAAAAA" text-anchor="middle">200 ms</text>
  
  <!-- Crossover -->
  <circle cx="120" cy="340" r="30" fill="#3A3A3A" stroke="#555555" stroke-width="1"/>
  <circle cx="120" cy="340" r="25" fill="#444444" stroke="#666666" stroke-width="1"/>
  <line x1="120" y1="340" x2="120" y2="320" stroke="white" stroke-width="2"/>
  <text x="120" y="380" font-family="Arial" font-size="12" fill="white" text-anchor="middle">Crossover</text>
  <text x="120" y="395" font-family="Arial" font-size="10" fill="#AAAAAA" text-anchor="middle">250 Hz</text>
  
  <!-- Mid Band Controls -->
  <rect x="300" y="210" width="250" height="30" fill="#333333" rx="5" ry="5"/>
  <text x="325" y="230" font-family="Arial" font-size="14" fill="white">Mid Band Enabled</text>
  <rect x="305" y="215" width="15" height="15" fill="#00A0C8" rx="2" ry="2"/>
  
  <!-- Mid Band Knobs -->
  <!-- Threshold -->
  <circle cx="330" cy="270" r="30" fill="#3A3A3A" stroke="#555555" stroke-width="1"/>
  <circle cx="330" cy="270" r="25" fill="#444444" stroke="#666666" stroke-width="1"/>
  <line x1="330" y1="270" x2="330" y2="250" stroke="white" stroke-width="2"/>
  <text x="330" y="310" font-family="Arial" font-size="12" fill="white" text-anchor="middle">Threshold</text>
  <text x="330" y="325" font-family="Arial" font-size="10" fill="#AAAAAA" text-anchor="middle">-24 dB</text>
  
  <!-- Ratio -->
  <circle cx="400" cy="270" r="30" fill="#3A3A3A" stroke="#555555" stroke-width="1"/>
  <circle cx="400" cy="270" r="25" fill="#444444" stroke="#666666" stroke-width="1"/>
  <line x1="400" y1="270" x2="400" y2="250" stroke="white" stroke-width="2"/>
  <text x="400" y="310" font-family="Arial" font-size="12" fill="white" text-anchor="middle">Ratio</text>
  <text x="400" y="325" font-family="Arial" font-size="10" fill="#AAAAAA" text-anchor="middle">4.0:1</text>
  
  <!-- Attack -->
  <circle cx="470" cy="270" r="30" fill="#3A3A3A" stroke="#555555" stroke-width="1"/>
  <circle cx="470" cy="270" r="25" fill="#444444" stroke="#666666" stroke-width="1"/>
  <line x1="470" y1="270" x2="470" y2="250" stroke="white" stroke-width="2"/>
  <text x="470" y="310" font-family="Arial" font-size="12" fill="white" text-anchor="middle">Attack</text>
  <text x="470" y="325" font-family="Arial" font-size="10" fill="#AAAAAA" text-anchor="middle">50 ms</text>
  
  <!-- Release -->
  <circle cx="330" cy="340" r="30" fill="#3A3A3A" stroke="#555555" stroke-width="1"/>
  <circle cx="330" cy="340" r="25" fill="#444444" stroke="#666666" stroke-width="1"/>
  <line x1="330" y1="340" x2="330" y2="320" stroke="white" stroke-width="2"/>
  <text x="330" y="380" font-family="Arial" font-size="12" fill="white" text-anchor="middle">Release</text>
  <text x="330" y="395" font-family="Arial" font-size="10" fill="#AAAAAA" text-anchor="middle">200 ms</text>
  
  <!-- Crossover -->
  <circle cx="400" cy="340" r="30" fill="#3A3A3A" stroke="#555555" stroke-width="1"/>
  <circle cx="400" cy="340" r="25" fill="#444444" stroke="#666666" stroke-width="1"/>
  <line x1="400" y1="340" x2="400" y2="320" stroke="white" stroke-width="2"/>
  <text x="400" y="380" font-family="Arial" font-size="12" fill="white" text-anchor="middle">Crossover</text>
  <text x="400" y="395" font-family="Arial" font-size="10" fill="#AAAAAA" text-anchor="middle">4000 Hz</text>
  
  <!-- High Band Controls -->
  <rect x="580" y="210" width="250" height="30" fill="#333333" rx="5" ry="5"/>
  <text x="605" y="230" font-family="Arial" font-size="14" fill="white">High Band Enabled</text>
  <rect x="585" y="215" width="15" height="15" fill="#00A0C8" rx="2" ry="2"/>
  
  <!-- High Band Knobs -->
  <!-- Threshold -->
  <circle cx="610" cy="270" r="30" fill="#3A3A3A" stroke="#555555" stroke-width="1"/>
  <circle cx="610" cy="270" r="25" fill="#444444" stroke="#666666" stroke-width="1"/>
  <line x1="610" y1="270" x2="610" y2="250" stroke="white" stroke-width="2"/>
  <text x="610" y="310" font-family="Arial" font-size="12" fill="white" text-anchor="middle">Threshold</text>
  <text x="610" y="325" font-family="Arial" font-size="10" fill="#AAAAAA" text-anchor="middle">-24 dB</text>
  
  <!-- Ratio -->
  <circle cx="680" cy="270" r="30" fill="#3A3A3A" stroke="#555555" stroke-width="1"/>
  <circle cx="680" cy="270" r="25" fill="#444444" stroke="#666666" stroke-width="1"/>
  <line x1="680" y1="270" x2="680" y2="250" stroke="white" stroke-width="2"/>
  <text x="680" y="310" font-family="Arial" font-size="12" fill="white" text-anchor="middle">Ratio</text>
  <text x="680" y="325" font-family="Arial" font-size="10" fill="#AAAAAA" text-anchor="middle">4.0:1</text>
  
  <!-- Attack -->
  <circle cx="750" cy="270" r="30" fill="#3A3A3A" stroke="#555555" stroke-width="1"/>
  <circle cx="750" cy="270" r="25" fill="#444444" stroke="#666666" stroke-width="1"/>
  <line x1="750" y1="270" x2="750" y2="250" stroke="white" stroke-width="2"/>
  <text x="750" y="310" font-family="Arial" font-size="12" fill="white" text-anchor="middle">Attack</text>
  <text x="750" y="325" font-family="Arial" font-size="10" fill="#AAAAAA" text-anchor="middle">50 ms</text>
  
  <!-- Release -->
  <circle cx="610" cy="340" r="30" fill="#3A3A3A" stroke="#555555" stroke-width="1"/>
  <circle cx="610" cy="340" r="25" fill="#444444" stroke="#666666" stroke-width="1"/>
  <line x1="610" y1="340" x2="610" y2="320" stroke="white" stroke-width="2"/>
  <text x="610" y="380" font-family="Arial" font-size="12" fill="white" text-anchor="middle">Release</text>
  <text x="610" y="395" font-family="Arial" font-size="10" fill="#AAAAAA" text-anchor="middle">200 ms</text>
  
  <!-- Global Controls -->
  <!-- Input Gain -->
  <circle cx="50" cy="460" r="30" fill="#3A3A3A" stroke="#555555" stroke-width="1"/>
  <circle cx="50" cy="460" r="25" fill="#444444" stroke="#666666" stroke-width="1"/>
  <line x1="50" y1="460" x2="50" y2="440" stroke="white" stroke-width="2"/>
  <text x="50" y="500" font-family="Arial" font-size="12" fill="white" text-anchor="middle">Input Gain</text>
  <text x="50" y="515" font-family="Arial" font-size="10" fill="#AAAAAA" text-anchor="middle">0.0 dB</text>
  
  <!-- Output Gain -->
  <circle cx="140" cy="460" r="30" fill="#3A3A3A" stroke="#555555" stroke-width="1"/>
  <circle cx="140" cy="460" r="25" fill="#444444" stroke="#666666" stroke-width="1"/>
  <line x1="140" y1="460" x2="140" y2="440" stroke="white" stroke-width="2"/>
  <text x="140" y="500" font-family="Arial" font-size="12" fill="white" text-anchor="middle">Output Gain</text>
  <text x="140" y="515" font-family="Arial" font-size="10" fill="#AAAAAA" text-anchor="middle">0.0 dB</text>
  
  <!-- Mix -->
  <circle cx="230" cy="460" r="30" fill="#3A3A3A" stroke="#555555" stroke-width="1"/>
  <circle cx="230" cy="460" r="25" fill="#444444" stroke="#666666" stroke-width="1"/>
  <line x1="230" y1="460" x2="230" y2="440" stroke="white" stroke-width="2"/>
  <text x="230" y="500" font-family="Arial" font-size="12" fill="white" text-anchor="middle">Mix</text>
  <text x="230" y="515" font-family="Arial" font-size="10" fill="#AAAAAA" text-anchor="middle">100%</text>
  
  <!-- Sensitivity -->
  <circle cx="320" cy="460" r="30" fill="#3A3A3A" stroke="#555555" stroke-width="1"/>
  <circle cx="320" cy="460" r="25" fill="#444444" stroke="#666666" stroke-width="1"/>
  <line x1="320" y1="460" x2="320" y2="440" stroke="white" stroke-width="2"/>
  <text x="320" y="500" font-family="Arial" font-size="12" fill="white" text-anchor="middle">Sensitivity</text>
  <text x="320" y="515" font-family="Arial" font-size="10" fill="#AAAAAA" text-anchor="middle">50%</text>
  
  <!-- Preset Controls -->
  <rect x="580" y="440" width="250" height="30" fill="#333333" rx="5" ry="5"/>
  <text x="590" y="460" font-family="Arial" font-size="14" fill="#AAAAAA">Select Preset</text>
  <path d="M815,455 l10,-8 l0,16 z" fill="#00A0C8"/>
  
  <!-- Preset Buttons -->
  <rect x="580" y="480" width="120" height="30" fill="#444444" rx="5" ry="5"/>
  <text x="640" y="500" font-family="Arial" font-size="14" fill="white" text-anchor="middle">Save Preset</text>
  
  <rect x="710" y="480" width="120" height="30" fill="#444444" rx="5" ry="5"/>
  <text x="770" y="500" font-family="Arial" font-size="14" fill="white" text-anchor="middle">Delete Preset</text>
  
  <!-- Tooltips -->
  <text x="20" y="550" font-family="Arial" font-size="12" fill="#AAAAAA">Threshold: Level at which processing is applied</text>
  <text x="300" y="550" font-family="Arial" font-size="12" fill="#AAAAAA">Ratio: Amount of processing applied</text>
  <text x="580" y="550" font-family="Arial" font-size="12" fill="#AAAAAA">Sensitivity: Overall detection strength</text>
  
  <!-- Copyright -->
  <text x="450" y="580" font-family="Arial" font-size="10" fill="#666666" text-anchor="middle">AdaptiveEQ VST Plugin v1.0.0</text>
</svg>